<svg width="64" height="64" viewBox="0 0 64 64" fill="none" xmlns="http://www.w3.org/2000/svg">
<rect width="64" height="64" rx="32" fill="#00006F"/>
<path d="M32.0003 18.6665C24.6483 18.6665 18.667 24.6478 18.667 31.9998C18.667 39.3518 24.6483 45.3332 32.0003 45.3332C39.3523 45.3332 45.3337 39.3518 45.3337 31.9998C45.3337 24.6478 39.3523 18.6665 32.0003 18.6665ZM42.575 30.6665H38.8897C38.7252 27.7482 37.9087 24.9038 36.5003 22.3425C38.1326 23.1052 39.5455 24.2684 40.6076 25.7237C41.6696 27.1791 42.3464 28.8794 42.575 30.6665ZM32.707 21.3692C34.087 23.1878 35.943 26.4092 36.2097 30.6665H28.0403C28.2257 27.2052 29.3657 23.9625 31.3083 21.3678C31.5377 21.3545 31.767 21.3332 32.0003 21.3332C32.239 21.3332 32.4723 21.3545 32.707 21.3692ZM27.5843 22.3025C26.2723 24.8238 25.515 27.6825 25.3737 30.6665H21.4257C21.656 28.8636 22.3425 27.1493 23.4202 25.6857C24.4979 24.2221 25.9311 23.0577 27.5843 22.3025ZM21.4257 33.3332H25.391C25.5723 36.5052 26.2777 39.3038 27.4657 41.6398C25.8419 40.8744 24.4373 39.7121 23.3816 38.2602C22.3259 36.8083 21.6532 35.1138 21.4257 33.3332ZM31.267 42.6305C29.399 40.3665 28.2963 37.1945 28.055 33.3332H36.2057C35.9283 37.0305 34.7163 40.2612 32.735 42.6292C32.4923 42.6452 32.2497 42.6665 32.0003 42.6665C31.7523 42.6665 31.511 42.6452 31.267 42.6305ZM36.615 41.6012C37.8883 39.2092 38.6657 36.3998 38.8697 33.3332H42.5737C42.3486 35.0989 41.6856 36.7803 40.6449 38.2243C39.6042 39.6683 38.2189 40.8292 36.615 41.6012Z" fill="#FBFDFD"/>
</svg>
