<svg width="64" height="64" viewBox="0 0 64 64" fill="none" xmlns="http://www.w3.org/2000/svg">
<rect width="64" height="64" rx="32" fill="#343DFF"/>
<path d="M32.0003 18.6665C24.6483 18.6665 18.667 24.6478 18.667 31.9998C18.667 39.3518 24.6483 45.3332 32.0003 45.3332C39.3523 45.3332 45.3337 39.3518 45.3337 31.9998C45.3337 24.6478 39.3523 18.6665 32.0003 18.6665ZM32.0003 42.6665C26.119 42.6665 21.3337 37.8812 21.3337 31.9998C21.3337 26.1185 26.119 21.3332 32.0003 21.3332C37.8817 21.3332 42.667 26.1185 42.667 31.9998C42.667 37.8812 37.8817 42.6665 32.0003 42.6665Z" fill="white"/>
<path d="M33.3337 25.3335H30.667V32.5522L35.0577 36.9428L36.943 35.0575L33.3337 31.4482V25.3335Z" fill="white"/>
</svg>
