<svg width="64" height="64" viewBox="0 0 64 64" fill="none" xmlns="http://www.w3.org/2000/svg">
<rect width="64" height="64" rx="32" fill="#343DFF"/>
<path d="M32 18.6665C30.6815 18.6665 29.3925 19.0575 28.2962 19.79C27.1999 20.5226 26.3454 21.5638 25.8408 22.7819C25.3362 24.0001 25.2042 25.3406 25.4614 26.6338C25.7187 27.927 26.3536 29.1149 27.286 30.0472C28.2183 30.9796 29.4062 31.6145 30.6994 31.8717C31.9926 32.129 33.333 31.997 34.5512 31.4924C35.7694 30.9878 36.8106 30.1333 37.5431 29.037C38.2757 27.9406 38.6667 26.6517 38.6667 25.3332C38.6667 23.5651 37.9643 21.8694 36.714 20.6191C35.4638 19.3689 33.7681 18.6665 32 18.6665ZM32 29.3332C31.2089 29.3332 30.4355 29.0986 29.7777 28.659C29.1199 28.2195 28.6072 27.5948 28.3045 26.8639C28.0017 26.133 27.9225 25.3287 28.0769 24.5528C28.2312 23.7769 28.6122 23.0642 29.1716 22.5047C29.731 21.9453 30.4437 21.5644 31.2196 21.41C31.9956 21.2557 32.7998 21.3349 33.5307 21.6377C34.2616 21.9404 34.8864 22.4531 35.3259 23.1109C35.7654 23.7687 36 24.542 36 25.3332C36 26.394 35.5786 27.4115 34.8284 28.1616C34.0783 28.9117 33.0609 29.3332 32 29.3332ZM44 43.9998V42.6665C44 40.1912 43.0167 37.8172 41.2663 36.0668C39.516 34.3165 37.142 33.3332 34.6667 33.3332H29.3333C26.858 33.3332 24.484 34.3165 22.7337 36.0668C20.9833 37.8172 20 40.1912 20 42.6665V43.9998H22.6667V42.6665C22.6667 40.8984 23.369 39.2027 24.6193 37.9525C25.8695 36.7022 27.5652 35.9998 29.3333 35.9998H34.6667C36.4348 35.9998 38.1305 36.7022 39.3807 37.9525C40.631 39.2027 41.3333 40.8984 41.3333 42.6665V43.9998H44Z" fill="white"/>
</svg>
