<svg width="64" height="64" viewBox="0 0 64 64" fill="none" xmlns="http://www.w3.org/2000/svg">
<rect width="64" height="64" rx="32" fill="#343DFF"/>
<path d="M29.3337 39.9998C31.7003 39.9994 33.9987 39.2071 35.863 37.7492L41.7243 43.6105L43.6097 41.7252L37.7483 35.8638C39.207 33.9994 39.9998 31.7004 40.0003 29.3332C40.0003 23.4518 35.215 18.6665 29.3337 18.6665C23.4523 18.6665 18.667 23.4518 18.667 29.3332C18.667 35.2145 23.4523 39.9998 29.3337 39.9998ZM29.3337 21.3332C33.7457 21.3332 37.3337 24.9212 37.3337 29.3332C37.3337 33.7452 33.7457 37.3332 29.3337 37.3332C24.9217 37.3332 21.3337 33.7452 21.3337 29.3332C21.3337 24.9212 24.9217 21.3332 29.3337 21.3332Z" fill="white"/>
</svg>
